<?xml version="1.0" encoding="utf-8"?>
<!-- Generator: Adobe Illustrator 19.2.1, SVG Export Plug-In . SVG Version: 6.00 Build 0)  -->
<svg version="1.1" id="ART" xmlns="http://www.w3.org/2000/svg" xmlns:xlink="http://www.w3.org/1999/xlink" x="0px" y="0px"
	 viewBox="0 0 137.4 124.3" style="enable-background:new 0 0 137.4 124.3;" xml:space="preserve">
<style type="text/css">
	.st0{fill:#FFFFFF;}
</style>
<g>
	<path class="st0" d="M67.6,75.6c-3,0-4.9,2.3-4.9,4.8v0c0,3.4,2.7,5,4.9,5c2.8,0,5.1-2,5.1-4.9C72.8,78.3,71,75.6,67.6,75.6z"/>
	<path class="st0" d="M107.4,8.4v-2c0-3.6-2.9-6.5-6.5-6.5c-3.6,0-6.5,2.9-6.5,6.5v2H42.9v-2C42.9,2.9,40,0,36.4,0S30,2.9,30,6.5v2
		H0v115.9h137.4V8.4H107.4z M35,93.8c-4.3,0-9-1.6-11.4-5.1c-1.6-2.4-1.9-5.1-2-6.5H31c0.2,0.8,0.8,3.4,4.2,3.4c2.7,0,4-1.8,4-4.1
		c0-3.5-3.6-3.7-4.9-3.7H31v-6.9h1.6c0.8,0,4.6,0,4.6-3.7c0-1.6-0.7-3.2-2.6-3.2c-2.7,0-2.8,2.3-2.9,3.2h-9.2c0.1-4.4,2-7.2,4.4-8.9
		c2.5-1.8,5.6-2.4,8.1-2.4c7.1,0,11.5,4.8,11.5,10c0,5-3.5,6.9-4.8,7.7c6.9,2.3,6.9,7.6,6.9,8.8C48.5,88.7,42.4,93.8,35,93.8z
		 M67.9,93.8c-4.6,0-8.8-1.7-11.3-4.9c-2.3-2.6-3.1-6.4-3.1-9.2c0-3.7,1.5-7,3.4-9.8l9.1-13.3h10.8l-6.6,9c-0.4,0.6-0.9,1.3-1.4,2
		c0,0,1.2-0.1,1.9-0.1c5.3,0,11.5,4.1,11.5,12.4C82.1,88.2,75.6,93.8,67.9,93.8z M100.2,93.8c-7.9,0-12.8-4.7-13.9-10.5h9.4
		c0.8,1.1,2.4,2.3,4.3,2.3c2.7,0,4.9-2.2,4.9-4.8c0-2.4-1.7-4.8-5-4.8c-1.8,0-3.7,0.7-4.8,3.2l-7.6-1.9l3.2-20.7h20.2v7.9h-13
		l-0.8,5c1-0.5,2.1-1.1,4.9-1.1c8.6,0,12.2,7.2,12.2,12.3C114.2,86.1,110,93.8,100.2,93.8z M127.5,29H9.9V18.4h20.3
		c0.8,2.6,3.3,4.5,6.1,4.5s5.3-1.9,6.1-4.5h52.3c0.8,2.6,3.3,4.5,6.1,4.5c2.9,0,5.3-1.9,6.1-4.5h20.3V29z"/>
</g>
</svg>
