<?xml version="1.0" encoding="UTF-8"?>
<svg xmlns="http://www.w3.org/2000/svg" xmlns:xlink="http://www.w3.org/1999/xlink" width="40px" height="25px" viewBox="0 0 39 25" version="1.1">
<g id="surface1">
<path style=" stroke:none;fill-rule:nonzero;fill:rgb(69.803922%,98.823529%,89.411765%);fill-opacity:1;" d="M 35.921875 0 L 3.078125 0 C 1.378906 0 0 1.398438 0 3.125 L 0 21.875 C 0 23.601562 1.378906 25 3.078125 25 L 35.921875 25 C 37.621094 25 39 23.601562 39 21.875 L 39 3.125 C 39 1.398438 37.621094 0 35.921875 0 Z M 35.921875 0 "/>
<path style=" stroke:none;fill-rule:nonzero;fill:rgb(0%,0%,0%);fill-opacity:1;" d="M 37.070312 10.417969 L 35.984375 9.78125 L 34.894531 9.113281 C 34.554688 8.917969 34.136719 8.917969 33.800781 9.121094 C 33.460938 9.320312 33.253906 9.6875 33.253906 10.082031 L 33.253906 10.21875 C 33.253906 10.296875 33.289062 10.371094 33.355469 10.417969 L 33.867188 10.707031 C 33.917969 10.738281 33.976562 10.746094 34.03125 10.730469 C 34.085938 10.714844 34.128906 10.675781 34.15625 10.625 C 34.164062 10.589844 34.164062 10.554688 34.15625 10.519531 L 34.15625 10.1875 C 34.152344 10.128906 34.171875 10.074219 34.210938 10.03125 C 34.25 9.988281 34.304688 9.960938 34.359375 9.957031 L 34.484375 9.957031 L 35.511719 10.550781 L 36.535156 11.136719 C 36.640625 11.203125 36.671875 11.339844 36.609375 11.449219 L 36.535156 11.519531 L 35.511719 12.105469 L 34.484375 12.699219 C 34.433594 12.730469 34.375 12.738281 34.320312 12.722656 C 34.265625 12.710938 34.214844 12.675781 34.1875 12.625 C 34.175781 12.585938 34.175781 12.539062 34.1875 12.5 L 34.1875 12.332031 C 34.1875 11.9375 33.980469 11.570312 33.640625 11.371094 C 33.300781 11.167969 32.882812 11.167969 32.542969 11.363281 L 31.4375 12.011719 L 30.347656 12.644531 C 29.824219 12.953125 29.644531 13.632812 29.9375 14.167969 C 30.03125 14.34375 30.175781 14.488281 30.347656 14.582031 L 31.4375 15.21875 L 32.542969 15.855469 C 32.882812 16.050781 33.300781 16.050781 33.640625 15.847656 C 33.980469 15.648438 34.1875 15.28125 34.1875 14.886719 L 34.1875 14.75 C 34.1875 14.671875 34.148438 14.597656 34.082031 14.550781 L 33.570312 14.25 C 33.523438 14.21875 33.464844 14.214844 33.410156 14.230469 C 33.355469 14.246094 33.308594 14.28125 33.285156 14.332031 C 33.273438 14.371094 33.273438 14.410156 33.285156 14.449219 L 33.285156 14.78125 C 33.285156 14.839844 33.265625 14.894531 33.226562 14.9375 C 33.1875 14.980469 33.136719 15.007812 33.078125 15.011719 C 33.039062 15.019531 32.996094 15.019531 32.953125 15.011719 L 31.929688 14.417969 L 30.902344 13.832031 C 30.792969 13.78125 30.746094 13.652344 30.789062 13.542969 L 30.859375 13.46875 L 31.886719 12.886719 L 32.914062 12.292969 C 32.960938 12.261719 33.023438 12.25 33.078125 12.265625 C 33.132812 12.277344 33.183594 12.316406 33.210938 12.363281 C 33.222656 12.40625 33.222656 12.449219 33.210938 12.488281 L 33.210938 12.65625 C 33.210938 13.054688 33.417969 13.421875 33.757812 13.621094 C 34.097656 13.820312 34.515625 13.820312 34.855469 13.625 L 35.960938 12.980469 L 37.050781 12.34375 C 37.296875 12.1875 37.472656 11.941406 37.539062 11.652344 C 37.605469 11.363281 37.554688 11.0625 37.398438 10.8125 C 37.324219 10.65625 37.210938 10.519531 37.070312 10.417969 Z M 37.070312 10.417969 "/>
<path style=" stroke:none;fill-rule:nonzero;fill:rgb(0%,0%,0%);fill-opacity:1;" d="M 29.90625 10.605469 L 27.351562 15.957031 L 26.324219 15.957031 L 27.28125 13.957031 L 25.78125 10.605469 L 26.867188 10.605469 L 27.832031 12.84375 L 28.859375 10.605469 Z M 29.90625 10.605469 "/>
<path style=" stroke:none;fill-rule:nonzero;fill:rgb(0%,0%,0%);fill-opacity:1;" d="M 4.363281 12.5 C 4.332031 11.933594 3.863281 11.492188 3.304688 11.511719 C 2.742188 11.53125 2.300781 12 2.3125 12.570312 C 2.320312 13.136719 2.777344 13.59375 3.335938 13.59375 C 3.902344 13.59375 4.363281 13.128906 4.363281 12.550781 L 4.363281 12.5 M 4.363281 14.40625 L 4.363281 13.90625 C 4.070312 14.265625 3.632812 14.472656 3.171875 14.46875 C 2.15625 14.445312 1.351562 13.59375 1.375 12.5625 L 1.375 12.5 C 1.355469 11.996094 1.535156 11.507812 1.871094 11.136719 C 2.207031 10.769531 2.675781 10.550781 3.171875 10.53125 C 3.625 10.527344 4.050781 10.730469 4.339844 11.082031 L 4.339844 10.605469 L 5.253906 10.605469 L 5.253906 14.40625 Z M 4.363281 14.40625 "/>
<path style=" stroke:none;fill-rule:nonzero;fill:rgb(0%,0%,0%);fill-opacity:1;" d="M 9.769531 13.542969 C 9.441406 13.542969 9.359375 13.417969 9.359375 13.105469 L 9.359375 11.457031 L 9.945312 11.457031 L 9.945312 10.636719 L 9.359375 10.636719 L 9.359375 9.675781 L 8.414062 9.675781 L 8.414062 10.605469 L 7.183594 10.605469 L 7.183594 10.21875 C 7.183594 9.90625 7.308594 9.78125 7.636719 9.78125 L 7.839844 9.78125 L 7.839844 9.042969 L 7.398438 9.042969 C 6.621094 9.042969 6.25 9.300781 6.25 10.082031 L 6.25 10.59375 L 5.726562 10.59375 L 5.726562 11.457031 L 6.25 11.457031 L 6.25 14.4375 L 7.183594 14.4375 L 7.183594 11.457031 L 8.414062 11.457031 L 8.414062 13.324219 C 8.414062 14.105469 8.703125 14.4375 9.441406 14.4375 L 9.957031 14.4375 L 9.957031 13.542969 Z M 9.769531 13.542969 "/>
<path style=" stroke:none;fill-rule:nonzero;fill:rgb(0%,0%,0%);fill-opacity:1;" d="M 13.15625 12.15625 C 13.09375 11.6875 12.6875 11.347656 12.222656 11.375 C 11.757812 11.351562 11.351562 11.691406 11.277344 12.15625 Z M 11.289062 12.75 C 11.324219 13.261719 11.75 13.652344 12.253906 13.636719 C 12.613281 13.640625 12.945312 13.453125 13.136719 13.144531 L 14.101562 13.144531 C 13.855469 13.972656 13.082031 14.519531 12.234375 14.46875 C 11.214844 14.539062 10.335938 13.761719 10.261719 12.730469 L 10.261719 12.5 C 10.261719 11.414062 11.132812 10.53125 12.203125 10.53125 C 13.273438 10.53125 14.144531 11.414062 14.144531 12.5 C 14.152344 12.578125 14.152344 12.660156 14.144531 12.738281 Z M 11.289062 12.75 "/>
<path style=" stroke:none;fill-rule:nonzero;fill:rgb(0%,0%,0%);fill-opacity:1;" d="M 20.175781 12.5 C 20.164062 11.929688 19.699219 11.476562 19.136719 11.484375 C 18.578125 11.492188 18.125 11.957031 18.125 12.527344 C 18.125 13.097656 18.578125 13.558594 19.136719 13.566406 C 19.699219 13.574219 20.164062 13.121094 20.175781 12.550781 L 20.175781 12.5 M 17.210938 15.957031 L 17.210938 10.605469 L 18.125 10.605469 L 18.125 11.09375 C 18.417969 10.734375 18.855469 10.527344 19.316406 10.53125 C 20.328125 10.546875 21.140625 11.398438 21.121094 12.425781 L 21.121094 12.5 C 21.140625 13.003906 20.960938 13.492188 20.625 13.863281 C 20.289062 14.230469 19.820312 14.449219 19.324219 14.46875 C 18.890625 14.476562 18.472656 14.289062 18.1875 13.957031 L 18.1875 15.957031 Z M 17.210938 15.957031 "/>
<path style=" stroke:none;fill-rule:nonzero;fill:rgb(0%,0%,0%);fill-opacity:1;" d="M 24.445312 12.5 C 24.417969 11.9375 23.957031 11.503906 23.40625 11.511719 C 22.851562 11.523438 22.40625 11.972656 22.394531 12.535156 C 22.386719 13.097656 22.816406 13.566406 23.371094 13.59375 L 23.421875 13.59375 C 23.988281 13.59375 24.445312 13.128906 24.445312 12.550781 L 24.445312 12.5 M 24.445312 14.40625 L 24.445312 13.90625 C 24.160156 14.265625 23.722656 14.472656 23.265625 14.46875 C 22.25 14.453125 21.441406 13.601562 21.460938 12.574219 L 21.460938 12.5 C 21.441406 11.996094 21.621094 11.507812 21.957031 11.136719 C 22.292969 10.769531 22.761719 10.550781 23.257812 10.53125 C 23.707031 10.527344 24.132812 10.730469 24.417969 11.082031 L 24.417969 10.605469 L 25.339844 10.605469 L 25.339844 14.40625 Z M 24.445312 14.40625 "/>
<path style=" stroke:none;fill-rule:nonzero;fill:rgb(0%,0%,0%);fill-opacity:1;" d="M 15.546875 10.980469 C 15.722656 10.695312 16.03125 10.523438 16.359375 10.53125 C 16.496094 10.527344 16.632812 10.554688 16.757812 10.613281 L 16.757812 11.59375 C 16.558594 11.46875 16.328125 11.40625 16.09375 11.417969 C 15.757812 11.488281 15.535156 11.8125 15.578125 12.15625 L 15.578125 14.40625 L 14.625 14.40625 L 14.625 10.605469 L 15.546875 10.605469 Z M 15.546875 10.980469 "/>
</g>
</svg>
