<?xml version="1.0" encoding="UTF-8"?>
<svg xmlns="http://www.w3.org/2000/svg" xmlns:xlink="http://www.w3.org/1999/xlink" width="40px" height="25px" viewBox="0 0 41 25" version="1.1">
<g id="surface1">
<path style=" stroke:none;fill-rule:evenodd;fill:rgb(100%,100%,100%);fill-opacity:1;" d="M 1.640625 0 L 39.359375 0 C 40.265625 0 41 0.746094 41 1.667969 L 41 23.332031 C 41 24.253906 40.265625 25 39.359375 25 L 1.640625 25 C 0.734375 25 0 24.253906 0 23.332031 L 0 1.667969 C 0 0.746094 0.734375 0 1.640625 0 Z M 1.640625 0 "/>
<path style=" stroke:none;fill-rule:evenodd;fill:rgb(0%,44.705882%,80.784314%);fill-opacity:1;" d="M 34.605469 14.445312 L 33.160156 14.445312 C 33.015625 14.445312 32.917969 14.449219 32.835938 14.503906 C 32.753906 14.558594 32.71875 14.640625 32.71875 14.746094 C 32.71875 14.875 32.792969 14.960938 32.894531 15 C 32.976562 15.027344 33.070312 15.035156 33.199219 15.035156 L 33.632812 15.046875 C 34.066406 15.058594 34.355469 15.136719 34.535156 15.320312 C 34.566406 15.34375 34.585938 15.375 34.605469 15.402344 Z M 34.605469 16.664062 C 34.414062 16.953125 34.039062 17.097656 33.527344 17.097656 L 31.992188 17.097656 L 31.992188 16.375 L 33.523438 16.375 C 33.675781 16.375 33.78125 16.355469 33.84375 16.289062 C 33.898438 16.238281 33.9375 16.164062 33.9375 16.070312 C 33.9375 15.972656 33.898438 15.894531 33.839844 15.847656 C 33.78125 15.796875 33.699219 15.773438 33.5625 15.773438 C 32.816406 15.746094 31.882812 15.796875 31.882812 14.730469 C 31.882812 14.242188 32.191406 13.726562 33.023438 13.726562 L 34.605469 13.726562 L 34.605469 13.054688 L 33.136719 13.054688 C 32.691406 13.054688 32.371094 13.164062 32.140625 13.332031 L 32.140625 13.054688 L 29.964844 13.054688 C 29.617188 13.054688 29.210938 13.144531 29.015625 13.332031 L 29.015625 13.054688 L 25.132812 13.054688 L 25.132812 13.332031 C 24.820312 13.105469 24.300781 13.054688 24.058594 13.054688 L 21.496094 13.054688 L 21.496094 13.332031 C 21.25 13.089844 20.707031 13.054688 20.375 13.054688 L 17.507812 13.054688 L 16.851562 13.777344 L 16.238281 13.054688 L 11.953125 13.054688 L 11.953125 17.757812 L 16.15625 17.757812 L 16.832031 17.027344 L 17.46875 17.757812 L 20.0625 17.761719 L 20.0625 16.65625 L 20.316406 16.65625 C 20.660156 16.660156 21.066406 16.644531 21.421875 16.488281 L 21.421875 17.757812 L 23.558594 17.757812 L 23.558594 16.53125 L 23.664062 16.53125 C 23.792969 16.53125 23.808594 16.539062 23.808594 16.671875 L 23.808594 17.757812 L 30.300781 17.757812 C 30.710938 17.757812 31.144531 17.652344 31.382812 17.457031 L 31.382812 17.757812 L 33.441406 17.757812 C 33.871094 17.757812 34.289062 17.699219 34.605469 17.542969 Z M 31.4375 15.320312 C 31.589844 15.480469 31.675781 15.6875 31.675781 16.035156 C 31.675781 16.757812 31.226562 17.097656 30.425781 17.097656 L 28.878906 17.097656 L 28.878906 16.375 L 30.417969 16.375 C 30.570312 16.375 30.675781 16.355469 30.746094 16.289062 C 30.800781 16.238281 30.839844 16.164062 30.839844 16.070312 C 30.839844 15.972656 30.796875 15.894531 30.742188 15.847656 C 30.679688 15.796875 30.597656 15.773438 30.457031 15.773438 C 29.714844 15.746094 28.785156 15.796875 28.785156 14.730469 C 28.785156 14.242188 29.085938 13.726562 29.921875 13.726562 L 31.511719 13.726562 L 31.511719 14.445312 L 30.054688 14.445312 C 29.910156 14.445312 29.816406 14.449219 29.738281 14.503906 C 29.648438 14.558594 29.617188 14.640625 29.617188 14.746094 C 29.617188 14.875 29.691406 14.960938 29.792969 15 C 29.875 15.027344 29.964844 15.035156 30.101562 15.035156 L 30.527344 15.046875 C 30.960938 15.058594 31.257812 15.132812 31.4375 15.320312 Z M 24.265625 15.109375 C 24.160156 15.175781 24.027344 15.179688 23.871094 15.179688 L 22.90625 15.179688 L 22.90625 14.425781 L 23.886719 14.425781 C 24.027344 14.425781 24.167969 14.425781 24.265625 14.484375 C 24.367188 14.539062 24.429688 14.644531 24.429688 14.789062 C 24.429688 14.933594 24.367188 15.046875 24.265625 15.109375 Z M 24.746094 15.53125 C 24.921875 15.597656 25.066406 15.714844 25.132812 15.8125 C 25.246094 15.976562 25.261719 16.132812 25.265625 16.429688 L 25.265625 17.097656 L 24.46875 17.097656 L 24.46875 16.675781 C 24.46875 16.472656 24.488281 16.171875 24.339844 16.015625 C 24.222656 15.894531 24.046875 15.867188 23.757812 15.867188 L 22.90625 15.867188 L 22.90625 17.097656 L 22.109375 17.097656 L 22.109375 13.726562 L 23.941406 13.726562 C 24.34375 13.726562 24.640625 13.746094 24.898438 13.886719 C 25.152344 14.039062 25.308594 14.25 25.308594 14.632812 C 25.308594 15.171875 24.953125 15.445312 24.746094 15.53125 Z M 25.75 13.726562 L 28.402344 13.726562 L 28.402344 14.421875 L 26.539062 14.421875 L 26.539062 15.035156 L 28.355469 15.035156 L 28.355469 15.722656 L 26.539062 15.722656 L 26.539062 16.394531 L 28.402344 16.398438 L 28.402344 17.097656 L 25.75 17.097656 Z M 20.386719 15.28125 L 19.359375 15.28125 L 19.359375 14.425781 L 20.394531 14.425781 C 20.683594 14.425781 20.882812 14.542969 20.882812 14.835938 C 20.882812 15.128906 20.691406 15.28125 20.386719 15.28125 Z M 18.566406 16.789062 L 17.347656 15.417969 L 18.566406 14.089844 Z M 15.417969 16.394531 L 13.460938 16.394531 L 13.460938 15.722656 L 15.207031 15.722656 L 15.207031 15.035156 L 13.460938 15.035156 L 13.460938 14.421875 L 15.453125 14.421875 L 16.324219 15.40625 Z M 21.734375 14.835938 C 21.734375 15.773438 21.046875 15.964844 20.351562 15.964844 L 19.359375 15.964844 L 19.359375 17.097656 L 17.816406 17.097656 L 16.835938 15.980469 L 15.820312 17.097656 L 12.671875 17.097656 L 12.671875 13.726562 L 15.867188 13.726562 L 16.84375 14.832031 L 17.855469 13.726562 L 20.394531 13.726562 C 21.027344 13.726562 21.734375 13.902344 21.734375 14.835938 Z M 21.734375 14.835938 "/>
<path style=" stroke:none;fill-rule:evenodd;fill:rgb(0%,44.705882%,80.784314%);fill-opacity:1;" d="M 8.878906 9.84375 L 8.335938 8.5 L 7.792969 9.84375 Z M 20.863281 9.308594 C 20.753906 9.375 20.625 9.378906 20.46875 9.378906 L 19.503906 9.378906 L 19.503906 8.628906 L 20.484375 8.628906 C 20.621094 8.628906 20.765625 8.636719 20.859375 8.691406 C 20.960938 8.738281 21.027344 8.84375 21.027344 8.988281 C 21.027344 9.136719 20.964844 9.253906 20.863281 9.308594 Z M 27.75 9.84375 L 27.199219 8.5 L 26.652344 9.84375 Z M 14.910156 11.296875 L 14.097656 11.296875 L 14.09375 8.660156 L 12.941406 11.296875 L 12.242188 11.296875 L 11.085938 8.65625 L 11.085938 11.296875 L 9.472656 11.296875 L 9.164062 10.546875 L 7.511719 10.546875 L 7.203125 11.296875 L 6.339844 11.296875 L 7.761719 7.929688 L 8.941406 7.929688 L 10.292969 11.117188 L 10.292969 7.929688 L 11.59375 7.929688 L 12.632812 10.214844 L 13.585938 7.929688 L 14.910156 7.929688 Z M 18.160156 11.296875 L 15.503906 11.296875 L 15.503906 7.929688 L 18.160156 7.929688 L 18.160156 8.628906 L 16.296875 8.628906 L 16.296875 9.238281 L 18.113281 9.238281 L 18.113281 9.925781 L 16.296875 9.925781 L 16.296875 10.601562 L 18.160156 10.601562 Z M 21.902344 8.835938 C 21.902344 9.371094 21.546875 9.648438 21.34375 9.734375 C 21.515625 9.800781 21.664062 9.917969 21.734375 10.015625 C 21.847656 10.183594 21.867188 10.335938 21.867188 10.636719 L 21.867188 11.296875 L 21.066406 11.296875 L 21.0625 10.871094 C 21.0625 10.667969 21.082031 10.378906 20.9375 10.214844 C 20.820312 10.097656 20.644531 10.070312 20.355469 10.070312 L 19.503906 10.070312 L 19.503906 11.296875 L 18.710938 11.296875 L 18.710938 7.929688 L 20.539062 7.929688 C 20.945312 7.929688 21.242188 7.9375 21.5 8.089844 C 21.75 8.238281 21.902344 8.460938 21.902344 8.835938 Z M 23.175781 11.296875 L 22.363281 11.296875 L 22.363281 7.929688 L 23.175781 7.929688 Z M 32.582031 11.296875 L 31.457031 11.296875 L 29.949219 8.769531 L 29.949219 11.296875 L 28.332031 11.296875 L 28.023438 10.546875 L 26.371094 10.546875 L 26.070312 11.296875 L 25.140625 11.296875 C 24.753906 11.296875 24.265625 11.210938 23.988281 10.925781 C 23.707031 10.636719 23.5625 10.25 23.5625 9.636719 C 23.5625 9.140625 23.648438 8.683594 23.992188 8.320312 C 24.25 8.050781 24.652344 7.929688 25.199219 7.929688 L 25.96875 7.929688 L 25.96875 8.648438 L 25.214844 8.648438 C 24.925781 8.648438 24.761719 8.695312 24.601562 8.847656 C 24.46875 8.992188 24.375 9.257812 24.375 9.613281 C 24.375 9.972656 24.445312 10.234375 24.59375 10.402344 C 24.714844 10.539062 24.9375 10.578125 25.148438 10.578125 L 25.503906 10.578125 L 26.625 7.929688 L 27.816406 7.929688 L 29.160156 11.113281 L 29.160156 7.929688 L 30.371094 7.929688 L 31.769531 10.273438 L 31.769531 7.929688 L 32.582031 7.929688 Z M 6.328125 11.957031 L 7.6875 11.957031 L 7.992188 11.210938 L 8.679688 11.210938 L 8.984375 11.957031 L 11.65625 11.957031 L 11.65625 11.386719 L 11.894531 11.960938 L 13.28125 11.960938 L 13.519531 11.378906 L 13.519531 11.957031 L 20.160156 11.957031 L 20.15625 10.730469 L 20.285156 10.730469 C 20.375 10.734375 20.402344 10.742188 20.402344 10.894531 L 20.402344 11.957031 L 23.835938 11.957031 L 23.835938 11.671875 C 24.113281 11.824219 24.542969 11.957031 25.113281 11.957031 L 26.554688 11.957031 L 26.867188 11.210938 L 27.550781 11.210938 L 27.855469 11.957031 L 30.636719 11.957031 L 30.636719 11.25 L 31.058594 11.957031 L 33.289062 11.957031 L 33.289062 7.261719 L 31.082031 7.261719 L 31.082031 7.816406 L 30.773438 7.261719 L 28.507812 7.261719 L 28.507812 7.816406 L 28.222656 7.261719 L 25.164062 7.261719 C 24.652344 7.261719 24.199219 7.332031 23.835938 7.535156 L 23.835938 7.261719 L 21.726562 7.261719 L 21.726562 7.535156 C 21.492188 7.328125 21.179688 7.261719 20.828125 7.261719 L 13.113281 7.261719 L 12.59375 8.472656 L 12.0625 7.261719 L 9.632812 7.261719 L 9.632812 7.816406 L 9.363281 7.261719 L 7.292969 7.261719 L 6.328125 9.496094 Z M 6.328125 11.957031 "/>
</g>
</svg>
