<?xml version="1.0" encoding="utf-8"?>
<!-- Generator: Adobe Illustrator 19.2.1, SVG Export Plug-In . SVG Version: 6.00 Build 0)  -->
<svg version="1.1" id="Calque_1" xmlns="http://www.w3.org/2000/svg" xmlns:xlink="http://www.w3.org/1999/xlink" x="0px" y="0px"
	 viewBox="0 0 40 40" style="enable-background:new 0 0 40 40;" xml:space="preserve">
<style type="text/css">
	.st0{fill:#0081C5;}
	.st1{fill:#FFFFFF;}
</style>
<polygon class="st0" points="20,40.3 25.3,33.1 30.6,26 20,26 9.4,26 14.7,33.1 "/>
<rect class="st0" width="40" height="32.3"/>
<g>
	<polygon class="st1" points="22.7,9.4 32.3,9.4 32.3,13.1 27,13.1 27,15.8 31.6,15.8 31.6,19.4 27,19.4 27,22.4 32.3,22.4 32.3,26 
		22.7,26 	"/>
	<g>
		<path class="st1" d="M7.7,26V9.4h6c2.8,0,4.7,0.3,6.6,2c1.7,1.5,2.6,3.7,2.6,6.4c0,2.5-0.9,4.6-2.5,6.2c-1.9,1.7-3.5,2.1-6,2.1
			H7.7z M18.6,17.7c0-3-1.7-4.7-4.9-4.7H12v9.4h1.7C17,22.4,18.6,20.9,18.6,17.7"/>
	</g>
</g>
</svg>
