<?xml version="1.0" encoding="utf-8"?>
<!-- Generator: Adobe Illustrator 19.2.1, SVG Export Plug-In . SVG Version: 6.00 Build 0)  -->
<svg version="1.1" id="Layer_1" xmlns="http://www.w3.org/2000/svg" xmlns:xlink="http://www.w3.org/1999/xlink" x="0px" y="0px"
	 viewBox="0 0 118.2 63.7" style="enable-background:new 0 0 118.2 63.7;" xml:space="preserve">
<style type="text/css">
	.st0{fill:#FFFFFF;}
</style>
<path class="st0" d="M105.2,54.5c-0.3-3-0.9-5.9-1.7-8.7l12-5.8l-4-8.2L100,37.4c-1.5-2.7-3.2-5.3-5.1-7.7l9.2-9.2L97.6,14l-9.2,9.2
	c-2.3-1.9-4.7-3.5-7.3-4.9l5.6-11.5l-8.2-4l-5.8,11.9c-2.9-0.9-6-1.5-9.1-1.8V0h-9.1v13c-3.1,0.3-6.2,0.9-9.1,1.8L39.7,2.9l-8.2,4
	L37,18.3c-2.6,1.4-5,3.1-7.3,4.9L20.5,14L14,20.5l9.2,9.2c-1.9,2.4-3.7,4.9-5.1,7.7L6.7,31.8l-4,8.2l12,5.8
	c-0.8,2.8-1.4,5.7-1.7,8.7H0v9.1h12.7H59h46.3H118v-9.1H105.2z M59.1,54.5H22.2c2.3-18.4,18-32.7,36.9-32.7S93.8,36.1,96,54.5H59.1z
	"/>
</svg>
