<?xml version="1.0" encoding="utf-8"?>
<!-- Generator: Adobe Illustrator 19.2.1, SVG Export Plug-In . SVG Version: 6.00 Build 0)  -->
<svg version="1.1" id="Layer_1" xmlns="http://www.w3.org/2000/svg" xmlns:xlink="http://www.w3.org/1999/xlink" x="0px" y="0px"
	 viewBox="0 0 89.3 69.7" style="enable-background:new 0 0 89.3 69.7;" xml:space="preserve">
<style type="text/css">
	.st0{fill:#FFFFFF;}
</style>
<g>
	<polygon class="st0" points="23.5,10.8 34,17.5 44.6,10.8 55.1,17.5 65.7,10.8 76.2,17.5 89.3,9.3 84.4,1.6 76.3,6.7 65.8,0 
		55.2,6.7 44.7,0 34.1,6.7 23.6,0 13,6.7 4.9,1.6 0,9.3 12.9,17.5 	"/>
	<polygon class="st0" points="76.3,58.9 65.8,52.2 55.2,58.9 44.7,52.2 34.1,58.9 23.6,52.2 13,58.9 4.9,53.8 0,61.5 12.9,69.7 
		23.5,63 34,69.7 44.6,63 55.1,69.7 65.7,63 76.2,69.7 89.3,61.5 84.4,53.8 	"/>
	<polygon class="st0" points="76.3,32.8 65.8,26.1 55.2,32.8 44.7,26.1 34.1,32.8 23.6,26.1 13,32.8 4.9,27.7 0,35.4 12.9,43.6 
		23.5,36.9 34,43.6 44.6,36.9 55.1,43.6 65.7,36.9 76.2,43.6 89.3,35.4 84.4,27.7 	"/>
</g>
</svg>
