<?xml version="1.0" encoding="utf-8"?>
<!-- Generator: Adobe Illustrator 19.2.1, SVG Export Plug-In . SVG Version: 6.00 Build 0)  -->
<svg version="1.1" id="Layer_1" xmlns="http://www.w3.org/2000/svg" xmlns:xlink="http://www.w3.org/1999/xlink" x="0px" y="0px"
	 viewBox="0 0 114.8 67.4" style="enable-background:new 0 0 114.8 67.4;" xml:space="preserve">
<style type="text/css">
	.st0{fill:#FFFFFF;}
</style>
<g>
	<path class="st0" d="M61.3,0.2C60,0.1,58.7,0,57.4,0s-2.6,0.1-3.9,0.2C23.7,2.4,0,29.7,0,62.9v4.6h20.9h73h20.9v-4.6
		C114.8,29.7,91.1,2.4,61.3,0.2z M9.3,58.3c1-12.5,5.8-23.8,13.2-32.4c-1,3.4-1.6,6.9-1.6,10.6v21.8H9.3z M30,58.3v-9.7h6.4v-9.1H30
		v-3c0-14.1,10.8-25.8,24.5-27.2c1-0.1,1.9-0.2,2.9-0.2s1.9,0.1,2.9,0.2C74,10.7,84.8,22.4,84.8,36.5v3h-6.3v9.1h6.3v9.7H30z
		 M93.9,58.3V36.5c0-3.7-0.6-7.3-1.6-10.6c7.4,8.6,12.2,19.9,13.2,32.4C105.5,58.3,93.9,58.3,93.9,58.3z"/>
	<rect x="43.2" y="39.5" class="st0" width="10.8" height="9.1"/>
	<rect x="60.8" y="39.5" class="st0" width="10.8" height="9.1"/>
</g>
</svg>
