<?xml version="1.0" encoding="utf-8"?>
<!-- Generator: Adobe Illustrator 19.2.1, SVG Export Plug-In . SVG Version: 6.00 Build 0)  -->
<svg version="1.1" id="Layer_1" xmlns="http://www.w3.org/2000/svg" xmlns:xlink="http://www.w3.org/1999/xlink" x="0px" y="0px"
	 viewBox="0 0 82.9 82.9" style="enable-background:new 0 0 82.9 82.9;" xml:space="preserve">
<style type="text/css">
	.st0{fill:#FFFFFF;}
</style>
<polygon class="st0" points="82.9,36.9 63.7,36.9 76.7,24.7 70.5,18.1 50.4,36.9 46,36.9 46,32.5 64.8,12.4 58.1,6.2 46,19.2 46,0 
	36.9,0 36.9,19.2 24.7,6.2 18.1,12.4 36.9,32.5 36.9,36.9 32.5,36.9 12.4,18.1 6.2,24.7 19.2,36.9 0,36.9 0,46 19.2,46 6.2,58.1 
	12.4,64.8 32.5,46 36.9,46 36.9,50.4 18.1,70.5 24.7,76.7 36.9,63.7 36.9,82.9 46,82.9 46,63.7 58.1,76.7 64.8,70.5 46,50.4 46,46 
	50.4,46 70.5,64.8 76.7,58.1 63.7,46 82.9,46 "/>
</svg>
