<?xml version="1.0" encoding="utf-8"?>
<!-- Generator: Adobe Illustrator 19.2.1, SVG Export Plug-In . SVG Version: 6.00 Build 0)  -->
<svg version="1.1" id="Layer_1" xmlns="http://www.w3.org/2000/svg" xmlns:xlink="http://www.w3.org/1999/xlink" x="0px" y="0px"
	 viewBox="0 0 95.1 76.8" style="enable-background:new 0 0 95.1 76.8;" xml:space="preserve">
<style type="text/css">
	.st0{fill:#FFFFFF;}
</style>
<path class="st0" d="M0,0v76.8h95.1V0H0z M33.3,33.9c1.9-6.1,7.6-10.5,14.3-10.5s12.3,4.4,14.3,10.5H33.3z M61.8,43
	c-1.9,6.1-7.6,10.5-14.3,10.5S35.2,49,33.3,43H61.8z M32.5,57.2c4.1,3.3,9.3,5.4,15,5.4s10.9-2.1,15-5.4v10.5h-30V57.2z M62.6,19.7
	c-4.1-3.3-9.3-5.4-15-5.4s-10.9,2.1-15,5.4V9.1h30.1L62.6,19.7L62.6,19.7z M9.1,9.1h14.2v58.6H9.1V9.1z M86,67.7H71.7V9.1H86V67.7z"
	/>
</svg>
