<svg height="10" viewBox="0 0 17 10" width="17" xmlns="http://www.w3.org/2000/svg"><g fill="none"><path d="m0 0h8.461538v5.384615h-8.461538z" fill="#2c5d8c"/><path d="m0 0h16.153846v10h-16.153846z" fill="#2c5d8c"/><path d="m0 0h16.153846v10h-16.153846z" fill="#31407d"/><path d="m15.384615 0h1v10h-1z" fill="#231f20" opacity=".3"/><path d="m0 0h1v10h-1z" fill="#231f20" opacity=".3"/><path d="m0 0h16.153846v1h-16.153846z" fill="#231f20" opacity=".3"/><path d="m0 9.230769h16.153846v1h-16.153846z" fill="#231f20" opacity=".3"/><path d="m11.538462 1.538462h1v1h-1z" fill="#f7e9e8"/><path d="m13.846154 3.846154h1v1h-1z" fill="#f7e9e8"/><path d="m3.846154 6.923077h1v1h-1z" fill="#f7e9e8"/><path d="m3.846154 7.692308h1v1h-1z" fill="#fff" opacity=".39"/><path d="m3.846154 6.153846h1v1h-1z" fill="#fff" opacity=".39"/><path d="m4.615385 6.923077h1v1h-1z" fill="#fff" opacity=".39"/><path d="m3.076923 6.923077h1v1h-1z" fill="#fff" opacity=".39"/><path d="m10 4.615385h1v1h-1z" fill="#f7e9e8"/><g fill="#5da1d8"><path d="m10.769231 4.615385h1v1h-1z" opacity=".33"/><path d="m12.307692 6.923077h1v1h-1z" opacity=".33"/><path d="m11.538462 7.692308h1v1h-1z" opacity=".33"/><path d="m13.076923 3.846154h1v1h-1z" opacity=".33"/><path d="m10.769231 1.538462h1v1h-1z" opacity=".33"/><path d="m11.538462.769231h1v1h-1z" opacity=".33"/><path d="m13.846154 4.615385h1v1h-1z" opacity=".33"/></g><path d="m12.307692 7.692308h1v1h-1z" fill="#f7e9e8"/><g transform=""><path d="m.769231.769231h6.923077v3.846154h-6.923077z" fill="#f2e9e9"/><g fill="#c23c23"><path d="m3.846154.769231h1v3.846154h-1z"/><path d="m3.86-.739923h1v6.923077h-1z" transform="matrix(0 -1 1 0 1.523 6.96623)"/><path d="m3.888698-1.519339h1v8.076885h-1z" opacity=".45" transform="matrix(.47810228 -.87830417 .87830417 .47810228 .017692 5.067982)"/><path d="m3.758098-1.435772h1v8.076882h-1z" opacity=".45" transform="matrix(-.47920241 -.87770442 .87770442 -.47920241 3.843535 7.485951)"/></g></g></g></svg>