<svg height="17" viewBox="0 0 82 17" width="82" xmlns="http://www.w3.org/2000/svg"><g fill="none" fill-rule="evenodd"><g fill="#31322f"><path d="m40.4023427 8.56552083c0-1.12447916-.9240564-2.06160416-2.0194056-2.06160416-1.0955271 0-2.0197614.937125-2.0197614 2.06160416 0 1.10765625.9242343 2.06178127 2.0197614 2.06178127 1.0953492 0 2.0194056-.95412502 2.0194056-2.06178127zm.8730065-2.87955208c.7701953.78377083 1.1979827 1.80607292 1.1979827 2.87955208 0 1.07365625-.4277874 2.09595837-1.1979827 2.87972917-.7701952.7665938-1.7970629 1.1756563-2.8924121 1.1756563-.7189675 0-1.3694534-.2555313-1.9342039-.7667709l-.0855575-.068v4.5632604l-2.0708113.6506042v-12.33651042h2.0708113v.61359375l.0855575-.08535416c.616334-.59623959 1.3178698-.68141667 1.9342039-.68141667 1.0782733 0 2.105141.4090625 2.8924121 1.17565625z"/><path d="m45.2805423 8.56552083c0 1.12465625.9242343 2.06178127 2.0197614 2.06178127 1.0953492 0 2.0194056-.93712502 2.0194056-2.06178127 0-1.10747916-.9240564-2.06160416-2.0194056-2.06160416-1.0955271 0-2.0197614.954125-2.0197614 2.06160416zm-.8730065 2.87972917c-.7701952-.7837708-1.1979827-1.80607292-1.1979827-2.87972917 0-1.07347916.4277875-2.09578125 1.1979827-2.87955208.7701952-.76659375 1.7972408-1.17565625 2.8927679-1.17565625.7186117 0 1.3690976.25553125 1.9338481.76677083l.0855575.068v-.68159375h2.0709892v7.80423962h-2.0709892v-.6135938l-.0855575.0853542c-.6159783.5962396-1.3178698.6814167-1.9338481.6814167-1.0784512 0-2.105141-.4090625-2.8927679-1.1756563z"/><path d="m45.2805423 8.56552083c0 1.12465625.9242343 2.06178127 2.0197614 2.06178127 1.0953492 0 2.0194056-.93712502 2.0194056-2.06178127 0-1.10747916-.9240564-2.06160416-2.0194056-2.06160416-1.0955271 0-2.0197614.954125-2.0197614 2.06160416zm-.8730065 2.87972917c-.7701952-.7837708-1.1979827-1.80607292-1.1979827-2.87972917 0-1.07347916.4277875-2.09578125 1.1979827-2.87955208.7701952-.76659375 1.7972408-1.17565625 2.8927679-1.17565625.7186117 0 1.3690976.25553125 1.9338481.76677083l.0855575.068v-.68159375h2.0709892v7.80423962h-2.0709892v-.6135938l-.0855575.0853542c-.6159783.5962396-1.3178698.6814167-1.9338481.6814167-1.0784512 0-2.105141-.4090625-2.8927679-1.1756563z"/><path d="m53.4620434 17 1.8657223-4.5152708-3.1321865-7.82123962h2.2933319l1.9512798 4.85633334 1.9852538-4.85633334h2.2764338l-4.997731 12.33651042z"/><path d="m53.4620434 17 1.8657223-4.5152708-3.1321865-7.82123962h2.2933319l1.9512798 4.85633334 1.9852538-4.85633334h2.2764338l-4.997731 12.33651042z"/><path d="m4.00661605 5.82409375c-1.50890672 0-2.73659436 1.22984375-2.73659436 2.74142708 0 1.51158337 1.22768764 2.74142707 2.73659436 2.74142707 1.5090846 0 2.73677224-1.2298437 2.73677224-2.74142707 0-1.51158333-1.22768764-2.74142708-2.73677224-2.74142708zm0 6.71340625c-1.07133622 0-2.07970499-.4072917-2.83904989-1.1469688-.75240781-.7658854-1.16756616-1.76977078-1.16756616-2.82501037 0-1.05523958.41515835-2.059125 1.16916703-2.82642708.75792191-.73808333 1.7661128-1.145375 2.83744902-1.145375 1.08378742 0 1.99645987.57091667 2.57099349 1.04975l.16577875.138125v-1.01769792h1.27019956v7.60342707h-1.27019956v-1.017875l-.16577875.1379479c-.57453362.4790104-1.48720607 1.0501042-2.57099349 1.0501042z"/><path d="m10.3129675 12.3673229v-6.40687498h-1.16383084v-1.19655209h1.16383084v-2.2471875c0-1.377 1.0981952-2.45561458 2.5003774-2.45561458h1.5973102l-.322308 1.19655208h-1.2406725c-.6736095 0-1.2646854.60420834-1.2646854 1.29323959v2.21301041h2.413219v1.19655209h-2.413219v6.40687498z"/><path d="m18.7861822 12.3673229c-1.3788807 0-2.5003774-1.1170416-2.5003774-2.48961457v-3.91726041h-1.1640087v-1.19655209h1.1640087v-4.70280208h1.2698438v4.70280208h2.413397v1.19655209h-2.413397v3.88326041c0 .69452087.6029935 1.32706247 1.2650412 1.32706247h1.2403167l.3224859 1.1965521z"/><path d="m24.2558134 5.87509375c-.9818655 0-1.8934707.70479167-2.2687852 1.75383333l-.0122733.02284375-.0725727.14520834h4.7083297l-.0910716-.1795625c-.3518351-1.03682292-1.263796-1.74232292-2.2636269-1.74232292zm-.0021344 6.62840625c-.993961-.0007083-1.9084122-.41225-2.5752625-1.1590104-.6118872-.6598125-.9697701-1.48714585-1.0361172-2.39416668-.0167201-.11935417-.0167201-.231625-.0167201-.350625 0-.29785417.0337961-.60013542.100321-.89834375.147102-.68354167.4761692-1.32157292.9519827-1.84573959.6629371-.72604166 1.6026464-1.14271875 2.5779305-1.14271875.9838222 0 1.905922.40622917 2.5962517 1.14378125.4953796.54594792.8244468 1.18309375.9503818 1.84166667.0996095.58207292.1020997.9435.0914273 1.12465625h-6.0495011v.13458333c.1771627 1.34654167 1.1979826 2.36565627 2.3756876 2.38371877.723948-.0352396 1.4381128-.3300834 1.9329588-.7928021l1.0595966.6298854c-.2876226.3033438-.5955228.5528542-.9382864.7605729-.5587028.333625-1.2575705.5289479-2.0206507.5645417z"/><path d="m29.141128 12.3673229v-7.60342707h1.2703774v.96103125l.1755618-.19302083c.4503775-.49477083 1.7742951-.89798958 2.6544165-.93535417l-.3098568 1.26278125c-1.396846.03984375-2.5201215 1.12394792-2.5201215 2.45065625v4.05733332z"/></g><path d="m71.6683557 6.81894792c.755076-.43509375 1.4649718-.84433334 2.2241389-1.28172917-.2458221-.42942708-.1858785-.3261875-.4098221-.73135417-.2372842-.42925-.1478135-.59801041.3422299-.60155208 1.4269067-.00991667 2.8541692-.01115625 4.2810759-.00371875.4238742.00230208.5261519.18292708.3135922.55515625-.7058048 1.2356875-1.419436 2.46694792-2.1394707 3.69448958-.2299913.39188542-.431167.391-.6714751.00761459-.2468893-.39401042-.1810759-.29661459-.4452191-.74321875-.7444034.4303125-1.4882733.86044791-2.2170238 1.28172916.043757.1136875.0996095.18664584.1453232.26580209.5490976.95146873.7943861 1.40586453 1.3618048 2.34653123.6723644 1.1147396 2.0818394 1.1818542 2.8822733.1515833.0889371-.1145729.1704035-.2362291.243154-.3616041 1.3466855-2.32227085 2.6940824-4.64401043 4.0327636-6.97088543.135718-.23552084.2580954-.49282292.3169718-.75561459.234616-1.04744791-.5458959-2.03769791-1.642846-2.04354166-2.8858308-.01522917-5.7721953-.01753125-8.6580261.00779166-1.3144902.01151042-2.1044295 1.32175-1.5270499 2.47332292.1881909.37488542.4139133.73117708.6254057 1.094375.3979045.68371875.5030282.86363542.9421995 1.61482292" fill="#306e9a"/><path d="m65.2517223 13.9934792c.0012452-.8618646.0035575-2.5489375.0035575-2.5489375s-.354859-.0037188-.8344078-.0037188c-.4882646 0-.5889414-.1717708-.3479219-.5919896.7022473-1.22382288 1.412321-2.4433958 2.1296876-3.65854163.2130933-.36089584.4018178-.39259375.6346551.00867708.7082951 1.22134375 1.4189024 2.44144792 2.117948 3.66810415.2232321.3915313.1221995.5629479-.328.5772917-.4647853 0-.8621562-.0005313-.8621562-.0005313l-.0001779 2.5565521s1.8947159.0003542 3.0023384.0003542c1.2954577-.019125 2.0555141-1.1894688 1.5663601-2.386375-.0542516-.1329896-.1184642-.2631458-.1903254-.3878125-1.330321-2.30721877-2.6601084-4.61479168-3.9982559-6.91758335-.1355402-.23304167-.2961606-.46590625-.4932452-.6470625-.7858481-.72232292-2.0281214-.54895833-2.5795314.38497917-1.4509198 2.45738541-2.8908113 4.92167708-4.3068677 7.39907288-.6449718 1.1285521.090538 2.4561459 1.3706985 2.5365417.4167592.0262083 2.1963904.0109792 3.1156442.0109792" fill="#1f4066"/></g></svg>
