<?xml version="1.0" encoding="UTF-8"?>
<svg id="Calque_1" data-name="Calque 1" xmlns="http://www.w3.org/2000/svg" viewBox="0 0 679.19 169.22">
  <defs>
    <style>
      .cls-1 {
        fill: #fff;
      }

      .cls-2 {
        fill: #001423;
      }
    </style>
  </defs>
  <rect class="cls-2" x="-.33" y="-.4" width="679.47" height="169.07"/>
  <polygon class="cls-1" points="119.28 40.62 169.25 40.62 169.25 59.74 141.76 59.77 141.76 73.96 165.56 73.94 165.56 92.63 141.76 92.65 141.76 108.4 169.25 108.4 169.25 127.45 119.28 127.45 119.28 40.62"/>
  <path class="cls-1" d="M271.86,40.62s-28.92,48.97-31.74,53.38c-3.3,5.19-10.47,13.41-21.34,13.28-17.67-.27-24.31-12.42-24.31-23.33,0-12.41,9.93-23.07,22.93-23.31,14.67-.3,25.59,13.69,25.59,13.69l11.48-18.42s-12.99-17.55-36.86-17.02c-35.95,.8-46.41,30.77-46.41,44.65,0,29.25,22.62,43.85,41.11,45.62,26.6,2.58,41.17-14.73,41.17-14.73,0,0-.19-.04,.72-.06,5.37-.06,19.53,.06,19.53,.06v13.03h21.62V40.62h-23.5Zm2.32,55.64h-11.59l11.59-19.67v19.67Z"/>
  <polygon class="cls-1" points="317.49 127.51 317.49 61.36 300.04 61.36 300.04 40.59 357.39 40.59 357.39 61.36 339.96 61.36 339.96 127.51 317.49 127.51"/>
  <polygon class="cls-1" points="407.59 94.26 384.48 94.26 384.48 127.51 362.02 127.51 362.02 40.61 384.48 40.61 384.48 73.61 407.59 73.61 407.59 40.61 430.06 40.61 430.06 127.51 407.59 127.51 407.59 94.26"/>
  <polygon class="cls-1" points="436.91 127.51 436.91 40.64 459.25 40.64 459.25 108.31 485.46 108.31 485.46 127.51 436.91 127.51"/>
  <path class="cls-1" d="M486.01,51.59c8.72-8.49,19.67-12.78,32.27-12.78,11.83,0,23.03,4.54,31.65,12.89,8.98,8.73,13.7,19.92,13.7,31.83,0,12.55-4.49,23.74-12.83,32.21-8.6,8.84-20.32,13.64-32.66,13.64-13.09,0-24.29-4.67-33.02-13.78-8.34-8.72-12.56-19.52-12.56-32.41,0-12.05,4.71-23.12,13.44-31.59m32.14,56.14c12.72,0,23.07-10.07,23.07-24.31,0-12.78-10.35-22.99-22.81-22.99-13.19,0-23.54,10.22-23.54,22.99,0,13.77,11.08,24.31,23.29,24.31"/>
  <polygon class="cls-1" points="561.55 127.51 561.55 40.62 581.85 40.62 615.6 88.88 615.6 40.62 638.1 40.62 638.1 127.51 618.33 127.51 584.05 79.1 584.05 127.51 561.55 127.51"/>
  <path class="cls-1" d="M40.79,127.51V40.62h31.39c14.58,0,24.77,1.83,34.34,10.38,8.76,7.82,13.42,19.2,13.42,33.49,0,13.2-4.52,24.07-13.31,32.27-9.8,9.03-18.45,10.75-31.36,10.75H40.79Zm56.81-43.74c0-15.65-8.92-24.47-25.42-24.47h-8.92v49.12h9.02c17.19,0,25.32-7.56,25.32-24.66"/>
</svg>