<?xml version="1.0" encoding="UTF-8"?>
<svg xmlns="http://www.w3.org/2000/svg" xmlns:xlink="http://www.w3.org/1999/xlink" width="40px" height="25px" viewBox="0 0 41 25" version="1.1">
<g id="surface1">
<path style=" stroke:none;fill-rule:evenodd;fill:rgb(100%,100%,100%);fill-opacity:1;" d="M 1.640625 0 L 39.359375 0 C 40.265625 0 41 0.746094 41 1.667969 L 41 23.332031 C 41 24.253906 40.265625 25 39.359375 25 L 1.640625 25 C 0.734375 25 0 24.253906 0 23.332031 L 0 1.667969 C 0 0.746094 0.734375 0 1.640625 0 Z M 1.640625 0 "/>
<path style=" stroke:none;fill-rule:evenodd;fill:rgb(80%,0%,0%);fill-opacity:1;" d="M 23.011719 12.703125 C 23.011719 17.191406 19.429688 20.832031 15.011719 20.832031 C 10.59375 20.832031 7.011719 17.191406 7.011719 12.703125 C 7.011719 8.210938 10.59375 4.570312 15.011719 4.570312 C 19.429688 4.570312 23.011719 8.210938 23.011719 12.703125 "/>
<path style=" stroke:none;fill-rule:evenodd;fill:rgb(100%,60%,0%);fill-opacity:1;" d="M 25.753906 4.570312 C 23.6875 4.570312 21.800781 5.367188 20.382812 6.675781 C 20.09375 6.941406 19.824219 7.230469 19.574219 7.535156 L 21.191406 7.535156 C 21.410156 7.808594 21.617188 8.097656 21.800781 8.398438 L 18.964844 8.398438 C 18.792969 8.675781 18.640625 8.960938 18.503906 9.257812 L 22.261719 9.257812 C 22.390625 9.539062 22.503906 9.824219 22.601562 10.121094 L 18.164062 10.121094 C 18.074219 10.398438 17.996094 10.6875 17.933594 10.980469 L 22.832031 10.980469 C 22.949219 11.535156 23.011719 12.113281 23.011719 12.703125 C 23.011719 13.605469 22.867188 14.472656 22.601562 15.285156 L 18.164062 15.285156 C 18.261719 15.582031 18.375 15.867188 18.503906 16.148438 L 22.261719 16.148438 C 22.125 16.445312 21.972656 16.730469 21.800781 17.007812 L 18.964844 17.007812 C 19.148438 17.308594 19.351562 17.59375 19.574219 17.867188 L 21.191406 17.867188 C 20.941406 18.175781 20.671875 18.460938 20.382812 18.730469 C 21.800781 20.035156 23.6875 20.832031 25.753906 20.832031 C 30.171875 20.832031 33.753906 17.191406 33.753906 12.703125 C 33.753906 8.210938 30.171875 4.570312 25.753906 4.570312 "/>
<path style=" stroke:none;fill-rule:evenodd;fill:rgb(0%,0%,40%);fill-opacity:1;" d="M 13.144531 13.59375 C 13.050781 13.582031 13.011719 13.578125 12.949219 13.578125 C 12.457031 13.578125 12.207031 13.75 12.207031 14.089844 C 12.207031 14.296875 12.328125 14.429688 12.519531 14.429688 C 12.875 14.429688 13.128906 14.089844 13.144531 13.59375 Z M 13.773438 15.085938 L 13.054688 15.085938 L 13.070312 14.738281 C 12.851562 15.015625 12.558594 15.144531 12.160156 15.144531 C 11.691406 15.144531 11.367188 14.773438 11.367188 14.230469 C 11.367188 13.410156 11.929688 12.9375 12.894531 12.9375 C 12.992188 12.9375 13.117188 12.945312 13.246094 12.960938 C 13.273438 12.851562 13.28125 12.804688 13.28125 12.742188 C 13.28125 12.523438 13.128906 12.4375 12.722656 12.4375 C 12.300781 12.433594 11.949219 12.542969 11.804688 12.589844 C 11.8125 12.535156 11.925781 11.835938 11.925781 11.835938 C 12.359375 11.707031 12.644531 11.65625 12.964844 11.65625 C 13.710938 11.65625 14.105469 12 14.105469 12.640625 C 14.105469 12.8125 14.078125 13.027344 14.035156 13.304688 C 13.957031 13.792969 13.796875 14.832031 13.773438 15.085938 Z M 13.773438 15.085938 "/>
<path style=" stroke:none;fill-rule:evenodd;fill:rgb(0%,0%,40%);fill-opacity:1;" d="M 11.003906 15.085938 L 10.136719 15.085938 L 10.632812 11.917969 L 9.523438 15.085938 L 8.929688 15.085938 L 8.855469 11.933594 L 8.335938 15.085938 L 7.519531 15.085938 L 8.199219 10.960938 L 9.449219 10.960938 L 9.523438 13.269531 L 10.285156 10.960938 L 11.675781 10.960938 Z M 11.003906 15.085938 "/>
<path style=" stroke:none;fill-rule:evenodd;fill:rgb(0%,0%,40%);fill-opacity:1;" d="M 26.828125 13.59375 C 26.734375 13.582031 26.695312 13.578125 26.632812 13.578125 C 26.140625 13.578125 25.890625 13.75 25.890625 14.089844 C 25.890625 14.296875 26.011719 14.429688 26.203125 14.429688 C 26.558594 14.429688 26.8125 14.089844 26.828125 13.59375 Z M 27.460938 15.085938 L 26.738281 15.085938 L 26.753906 14.738281 C 26.535156 15.015625 26.242188 15.144531 25.847656 15.144531 C 25.375 15.144531 25.050781 14.773438 25.050781 14.230469 C 25.050781 13.410156 25.613281 12.9375 26.578125 12.9375 C 26.675781 12.9375 26.800781 12.945312 26.929688 12.960938 C 26.957031 12.851562 26.964844 12.804688 26.964844 12.742188 C 26.964844 12.523438 26.8125 12.4375 26.40625 12.4375 C 25.984375 12.433594 25.632812 12.542969 25.488281 12.589844 C 25.496094 12.535156 25.609375 11.835938 25.609375 11.835938 C 26.042969 11.707031 26.328125 11.65625 26.648438 11.65625 C 27.394531 11.65625 27.789062 12 27.789062 12.640625 C 27.789062 12.8125 27.761719 13.027344 27.71875 13.304688 C 27.644531 13.792969 27.480469 14.832031 27.460938 15.085938 Z M 27.460938 15.085938 "/>
<path style=" stroke:none;fill-rule:evenodd;fill:rgb(0%,0%,40%);fill-opacity:1;" d="M 17.636719 15.035156 C 17.398438 15.113281 17.210938 15.144531 17.011719 15.144531 C 16.566406 15.144531 16.324219 14.886719 16.324219 14.40625 C 16.320312 14.261719 16.390625 13.871094 16.445312 13.515625 C 16.496094 13.199219 16.820312 11.226562 16.820312 11.226562 L 17.683594 11.226562 L 17.582031 11.734375 L 18.105469 11.734375 L 17.988281 12.539062 L 17.464844 12.539062 C 17.363281 13.175781 17.21875 13.972656 17.21875 14.078125 C 17.21875 14.25 17.308594 14.324219 17.515625 14.324219 C 17.617188 14.324219 17.691406 14.316406 17.75 14.292969 Z M 17.636719 15.035156 "/>
<path style=" stroke:none;fill-rule:evenodd;fill:rgb(0%,0%,40%);fill-opacity:1;" d="M 20.28125 15.007812 C 19.984375 15.101562 19.699219 15.144531 19.398438 15.144531 C 18.429688 15.144531 17.925781 14.632812 17.925781 13.648438 C 17.925781 12.503906 18.566406 11.65625 19.4375 11.65625 C 20.148438 11.65625 20.605469 12.128906 20.605469 12.871094 C 20.605469 13.117188 20.574219 13.359375 20.496094 13.695312 L 18.777344 13.695312 C 18.71875 14.183594 19.027344 14.386719 19.527344 14.386719 C 19.835938 14.386719 20.117188 14.320312 20.425781 14.175781 Z M 19.796875 13.019531 C 19.800781 12.949219 19.890625 12.421875 19.394531 12.421875 C 19.121094 12.421875 18.921875 12.636719 18.84375 13.019531 Z M 19.796875 13.019531 "/>
<path style=" stroke:none;fill-rule:evenodd;fill:rgb(0%,0%,40%);fill-opacity:1;" d="M 14.296875 12.792969 C 14.296875 13.21875 14.5 13.511719 14.957031 13.730469 C 15.308594 13.898438 15.363281 13.949219 15.363281 14.101562 C 15.363281 14.308594 15.207031 14.402344 14.863281 14.402344 C 14.605469 14.402344 14.363281 14.363281 14.085938 14.269531 C 14.085938 14.269531 13.972656 15.011719 13.96875 15.046875 C 14.164062 15.089844 14.339844 15.128906 14.871094 15.144531 C 15.789062 15.144531 16.210938 14.789062 16.210938 14.023438 C 16.210938 13.5625 16.035156 13.292969 15.597656 13.089844 C 15.234375 12.917969 15.191406 12.882812 15.191406 12.726562 C 15.191406 12.542969 15.335938 12.449219 15.617188 12.449219 C 15.789062 12.449219 16.019531 12.46875 16.242188 12.5 L 16.367188 11.722656 C 16.140625 11.6875 15.800781 11.65625 15.601562 11.65625 C 14.628906 11.65625 14.292969 12.171875 14.296875 12.792969 "/>
<path style=" stroke:none;fill-rule:evenodd;fill:rgb(0%,0%,40%);fill-opacity:1;" d="M 24.507812 11.746094 C 24.75 11.746094 24.972656 11.808594 25.285156 11.96875 L 25.425781 11.074219 C 25.296875 11.023438 24.851562 10.726562 24.472656 10.726562 C 23.890625 10.726562 23.398438 11.019531 23.050781 11.5 C 22.546875 11.332031 22.339844 11.675781 22.085938 12.015625 L 21.863281 12.070312 C 21.878906 11.957031 21.894531 11.847656 21.890625 11.734375 L 21.089844 11.734375 C 20.980469 12.769531 20.789062 13.824219 20.636719 14.863281 L 20.597656 15.085938 L 21.46875 15.085938 C 21.613281 14.128906 21.691406 13.515625 21.738281 13.101562 L 22.066406 12.917969 C 22.117188 12.730469 22.269531 12.667969 22.574219 12.675781 C 22.535156 12.894531 22.515625 13.125 22.515625 13.363281 C 22.515625 14.460938 23.097656 15.144531 24.03125 15.144531 C 24.273438 15.144531 24.480469 15.113281 24.800781 15.023438 L 24.953125 14.085938 C 24.664062 14.226562 24.429688 14.296875 24.214844 14.296875 C 23.710938 14.296875 23.40625 13.917969 23.40625 13.292969 C 23.40625 12.382812 23.859375 11.746094 24.507812 11.746094 "/>
<path style=" stroke:none;fill-rule:evenodd;fill:rgb(0%,0%,40%);fill-opacity:1;" d="M 31.863281 10.960938 L 31.667969 12.152344 C 31.429688 11.835938 31.175781 11.605469 30.839844 11.605469 C 30.402344 11.605469 30.003906 11.945312 29.742188 12.441406 C 29.378906 12.363281 29 12.234375 29 12.234375 L 29 12.238281 C 29.03125 11.960938 29.042969 11.789062 29.039062 11.734375 L 28.242188 11.734375 C 28.132812 12.769531 27.941406 13.824219 27.789062 14.863281 L 27.75 15.085938 L 28.617188 15.085938 C 28.734375 14.3125 28.824219 13.667969 28.890625 13.160156 C 29.1875 12.886719 29.335938 12.648438 29.636719 12.664062 C 29.503906 12.992188 29.425781 13.367188 29.425781 13.753906 C 29.425781 14.589844 29.84375 15.144531 30.476562 15.144531 C 30.792969 15.144531 31.039062 15.035156 31.277344 14.773438 L 31.234375 15.085938 L 32.054688 15.085938 L 32.71875 10.960938 Z M 30.773438 14.3125 C 30.480469 14.3125 30.328125 14.089844 30.328125 13.652344 C 30.328125 12.992188 30.609375 12.523438 31.003906 12.523438 C 31.300781 12.523438 31.464844 12.753906 31.464844 13.179688 C 31.464844 13.847656 31.179688 14.3125 30.773438 14.3125 Z M 30.773438 14.3125 "/>
<path style=" stroke:none;fill-rule:evenodd;fill:rgb(100%,100%,100%);fill-opacity:1;" d="M 11.253906 14.84375 L 10.386719 14.84375 L 10.882812 11.671875 L 9.773438 14.84375 L 9.179688 14.84375 L 9.105469 11.691406 L 8.585938 14.84375 L 7.769531 14.84375 L 8.449219 10.71875 L 9.699219 10.71875 L 9.734375 13.269531 L 10.578125 10.71875 L 11.925781 10.71875 Z M 11.253906 14.84375 "/>
<path style=" stroke:none;fill-rule:evenodd;fill:rgb(100%,100%,100%);fill-opacity:1;" d="M 13.394531 13.347656 C 13.300781 13.335938 13.261719 13.335938 13.199219 13.335938 C 12.707031 13.335938 12.457031 13.507812 12.457031 13.84375 C 12.457031 14.054688 12.578125 14.1875 12.769531 14.1875 C 13.125 14.1875 13.378906 13.84375 13.394531 13.347656 Z M 14.023438 14.84375 L 13.304688 14.84375 L 13.320312 14.496094 C 13.101562 14.769531 12.808594 14.902344 12.410156 14.902344 C 11.941406 14.902344 11.617188 14.527344 11.617188 13.984375 C 11.617188 13.167969 12.179688 12.691406 13.144531 12.691406 C 13.242188 12.691406 13.367188 12.699219 13.496094 12.71875 C 13.523438 12.605469 13.53125 12.558594 13.53125 12.5 C 13.53125 12.277344 13.378906 12.195312 12.972656 12.195312 C 12.550781 12.191406 12.199219 12.296875 12.054688 12.34375 C 12.0625 12.289062 12.175781 11.589844 12.175781 11.589844 C 12.609375 11.460938 12.894531 11.414062 13.214844 11.414062 C 13.960938 11.414062 14.355469 11.753906 14.355469 12.398438 C 14.355469 12.570312 14.328125 12.78125 14.285156 13.0625 C 14.207031 13.546875 14.046875 14.589844 14.023438 14.84375 Z M 14.023438 14.84375 "/>
<path style=" stroke:none;fill-rule:evenodd;fill:rgb(100%,100%,100%);fill-opacity:1;" d="M 25.675781 10.828125 L 25.535156 11.722656 C 25.222656 11.566406 25 11.5 24.757812 11.5 C 24.109375 11.5 23.652344 12.136719 23.652344 13.046875 C 23.652344 13.671875 23.960938 14.050781 24.464844 14.050781 C 24.679688 14.050781 24.914062 13.984375 25.203125 13.839844 L 25.050781 14.78125 C 24.730469 14.867188 24.523438 14.902344 24.28125 14.902344 C 23.347656 14.902344 22.765625 14.21875 22.765625 13.121094 C 22.765625 11.644531 23.570312 10.613281 24.722656 10.613281 C 25.101562 10.613281 25.546875 10.777344 25.675781 10.828125 "/>
<path style=" stroke:none;fill-rule:evenodd;fill:rgb(100%,100%,100%);fill-opacity:1;" d="M 27.078125 13.347656 C 26.988281 13.335938 26.945312 13.335938 26.882812 13.335938 C 26.390625 13.335938 26.140625 13.507812 26.140625 13.84375 C 26.140625 14.054688 26.265625 14.1875 26.453125 14.1875 C 26.808594 14.1875 27.0625 13.84375 27.078125 13.347656 Z M 27.710938 14.84375 L 26.988281 14.84375 L 27.003906 14.496094 C 26.785156 14.769531 26.492188 14.902344 26.097656 14.902344 C 25.625 14.902344 25.300781 14.527344 25.300781 13.984375 C 25.300781 13.167969 25.863281 12.691406 26.828125 12.691406 C 26.925781 12.691406 27.050781 12.699219 27.179688 12.71875 C 27.207031 12.605469 27.214844 12.558594 27.214844 12.5 C 27.214844 12.277344 27.0625 12.195312 26.65625 12.195312 C 26.234375 12.191406 25.882812 12.296875 25.738281 12.34375 C 25.746094 12.289062 25.859375 11.589844 25.859375 11.589844 C 26.292969 11.460938 26.578125 11.414062 26.898438 11.414062 C 27.644531 11.414062 28.039062 11.753906 28.039062 12.398438 C 28.039062 12.570312 28.011719 12.78125 27.96875 13.0625 C 27.894531 13.546875 27.730469 14.589844 27.710938 14.84375 Z M 27.710938 14.84375 "/>
<path style=" stroke:none;fill-rule:evenodd;fill:rgb(100%,100%,100%);fill-opacity:1;" d="M 17.886719 14.792969 C 17.648438 14.867188 17.460938 14.902344 17.261719 14.902344 C 16.816406 14.902344 16.574219 14.640625 16.574219 14.164062 C 16.570312 14.015625 16.640625 13.625 16.695312 13.269531 C 16.746094 12.957031 17.070312 10.980469 17.070312 10.980469 L 17.933594 10.980469 L 17.832031 11.488281 L 18.277344 11.488281 L 18.160156 12.292969 L 17.714844 12.292969 C 17.613281 12.933594 17.46875 13.726562 17.46875 13.832031 C 17.46875 14.003906 17.558594 14.082031 17.765625 14.082031 C 17.867188 14.082031 17.941406 14.070312 18 14.050781 Z M 17.886719 14.792969 "/>
<path style=" stroke:none;fill-rule:evenodd;fill:rgb(100%,100%,100%);fill-opacity:1;" d="M 20.53125 14.765625 C 20.234375 14.855469 19.949219 14.902344 19.648438 14.902344 C 18.679688 14.898438 18.175781 14.386719 18.175781 13.402344 C 18.175781 12.257812 18.816406 11.414062 19.6875 11.414062 C 20.398438 11.414062 20.855469 11.886719 20.855469 12.628906 C 20.855469 12.875 20.824219 13.113281 20.746094 13.453125 L 19.027344 13.453125 C 18.96875 13.9375 19.277344 14.140625 19.777344 14.140625 C 20.085938 14.140625 20.367188 14.078125 20.675781 13.929688 Z M 20.046875 12.777344 C 20.050781 12.707031 20.140625 12.175781 19.644531 12.175781 C 19.371094 12.175781 19.175781 12.390625 19.09375 12.777344 Z M 20.046875 12.777344 "/>
<path style=" stroke:none;fill-rule:evenodd;fill:rgb(100%,100%,100%);fill-opacity:1;" d="M 14.546875 12.546875 C 14.546875 12.972656 14.75 13.265625 15.207031 13.484375 C 15.558594 13.652344 15.613281 13.703125 15.613281 13.855469 C 15.613281 14.066406 15.457031 14.160156 15.113281 14.160156 C 14.855469 14.160156 14.613281 14.117188 14.335938 14.027344 C 14.335938 14.027344 14.222656 14.765625 14.21875 14.800781 C 14.414062 14.84375 14.589844 14.886719 15.121094 14.902344 C 16.039062 14.902344 16.460938 14.546875 16.460938 13.78125 C 16.460938 13.320312 16.285156 13.046875 15.847656 12.84375 C 15.484375 12.675781 15.441406 12.636719 15.441406 12.480469 C 15.441406 12.300781 15.585938 12.207031 15.867188 12.207031 C 16.039062 12.207031 16.269531 12.226562 16.492188 12.257812 L 16.617188 11.480469 C 16.390625 11.441406 16.050781 11.414062 15.851562 11.414062 C 14.878906 11.414062 14.542969 11.929688 14.546875 12.546875 "/>
<path style=" stroke:none;fill-rule:evenodd;fill:rgb(100%,100%,100%);fill-opacity:1;" d="M 32.304688 14.84375 L 31.484375 14.84375 L 31.527344 14.53125 C 31.289062 14.789062 31.042969 14.902344 30.726562 14.902344 C 30.09375 14.902344 29.675781 14.347656 29.675781 13.507812 C 29.675781 12.394531 30.324219 11.453125 31.089844 11.453125 C 31.425781 11.453125 31.679688 11.59375 31.917969 11.910156 L 32.113281 10.71875 L 32.96875 10.71875 Z M 31.023438 14.066406 C 31.429688 14.066406 31.714844 13.601562 31.714844 12.9375 C 31.714844 12.511719 31.550781 12.28125 31.253906 12.28125 C 30.859375 12.28125 30.578125 12.746094 30.578125 13.40625 C 30.578125 13.84375 30.730469 14.066406 31.023438 14.066406 Z M 31.023438 14.066406 "/>
<path style=" stroke:none;fill-rule:evenodd;fill:rgb(100%,100%,100%);fill-opacity:1;" d="M 28.492188 11.488281 C 28.382812 12.527344 28.191406 13.578125 28.039062 14.617188 L 28 14.84375 L 28.867188 14.84375 C 29.179688 12.792969 29.253906 12.390625 29.742188 12.441406 C 29.820312 12.019531 29.964844 11.652344 30.070312 11.46875 C 29.707031 11.390625 29.503906 11.601562 29.238281 11.996094 C 29.257812 11.824219 29.296875 11.660156 29.289062 11.488281 Z M 28.492188 11.488281 "/>
<path style=" stroke:none;fill-rule:evenodd;fill:rgb(100%,100%,100%);fill-opacity:1;" d="M 21.339844 11.488281 C 21.230469 12.527344 21.039062 13.578125 20.886719 14.617188 L 20.847656 14.84375 L 21.71875 14.84375 C 22.027344 12.792969 22.101562 12.390625 22.589844 12.441406 C 22.667969 12.019531 22.8125 11.652344 22.917969 11.46875 C 22.554688 11.390625 22.351562 11.601562 22.085938 11.996094 C 22.109375 11.824219 22.148438 11.660156 22.140625 11.488281 Z M 21.339844 11.488281 "/>
</g>
</svg>
