<?xml version="1.0" encoding="UTF-8"?>
<svg xmlns="http://www.w3.org/2000/svg" xmlns:xlink="http://www.w3.org/1999/xlink" width="40px" height="25px" viewBox="0 0 41 25" version="1.1">
<g id="surface1">
<path style=" stroke:none;fill-rule:evenodd;fill:rgb(100%,100%,100%);fill-opacity:1;" d="M 1.699219 24.9375 L 39.046875 24.9375 C 39.941406 24.9375 40.671875 24.203125 40.671875 23.296875 L 40.671875 1.988281 C 40.671875 1.082031 39.941406 0.347656 39.046875 0.347656 L 1.699219 0.347656 C 0.804688 0.347656 0.0742188 1.082031 0.0742188 1.988281 L 0.0742188 23.296875 C 0.0742188 24.203125 0.804688 24.9375 1.699219 24.9375 Z M 1.699219 24.9375 "/>
<path style=" stroke:none;fill-rule:evenodd;fill:rgb(0%,47.45098%,75.686275%);fill-opacity:1;" d="M 24.976562 11.167969 C 24.867188 11.890625 24.320312 11.890625 23.792969 11.890625 L 23.492188 11.890625 L 23.703125 10.542969 C 23.714844 10.460938 23.785156 10.398438 23.867188 10.398438 L 24.003906 10.398438 C 24.367188 10.398438 24.707031 10.398438 24.882812 10.605469 C 24.984375 10.730469 25.019531 10.914062 24.976562 11.167969 M 24.746094 9.28125 L 22.753906 9.28125 C 22.617188 9.28125 22.5 9.382812 22.480469 9.519531 L 21.671875 14.683594 C 21.65625 14.785156 21.734375 14.875 21.835938 14.875 L 22.859375 14.875 C 22.957031 14.875 23.035156 14.804688 23.050781 14.710938 L 23.28125 13.246094 C 23.300781 13.109375 23.417969 13.011719 23.554688 13.011719 L 24.1875 13.011719 C 25.5 13.011719 26.257812 12.367188 26.457031 11.097656 C 26.546875 10.539062 26.460938 10.101562 26.203125 9.796875 C 25.917969 9.460938 25.414062 9.28125 24.746094 9.28125 "/>
<path style=" stroke:none;fill-rule:evenodd;fill:rgb(0%,27.058824%,48.627451%);fill-opacity:1;" d="M 10.75 11.167969 C 10.640625 11.890625 10.09375 11.890625 9.566406 11.890625 L 9.261719 11.890625 L 9.476562 10.542969 C 9.488281 10.460938 9.558594 10.398438 9.640625 10.398438 L 9.777344 10.398438 C 10.136719 10.398438 10.476562 10.398438 10.652344 10.605469 C 10.757812 10.730469 10.789062 10.914062 10.75 11.167969 M 10.519531 9.28125 L 8.523438 9.28125 C 8.386719 9.28125 8.273438 9.382812 8.25 9.519531 L 7.445312 14.683594 C 7.429688 14.785156 7.503906 14.875 7.609375 14.875 L 8.5625 14.875 C 8.695312 14.875 8.8125 14.777344 8.835938 14.640625 L 9.050781 13.246094 C 9.074219 13.109375 9.191406 13.011719 9.324219 13.011719 L 9.957031 13.011719 C 11.269531 13.011719 12.03125 12.367188 12.226562 11.097656 C 12.316406 10.539062 12.230469 10.101562 11.972656 9.796875 C 11.691406 9.460938 11.1875 9.28125 10.519531 9.28125 "/>
<path style=" stroke:none;fill-rule:evenodd;fill:rgb(0%,27.058824%,48.627451%);fill-opacity:1;" d="M 15.152344 13.023438 C 15.058594 13.574219 14.625 13.941406 14.074219 13.941406 C 13.796875 13.941406 13.574219 13.851562 13.429688 13.683594 C 13.289062 13.515625 13.238281 13.273438 13.28125 13.003906 C 13.367188 12.457031 13.808594 12.078125 14.351562 12.078125 C 14.625 12.078125 14.84375 12.167969 14.988281 12.339844 C 15.136719 12.511719 15.191406 12.753906 15.152344 13.023438 M 16.480469 11.144531 L 15.527344 11.144531 C 15.445312 11.144531 15.375 11.203125 15.363281 11.285156 L 15.320312 11.554688 L 15.253906 11.457031 C 15.046875 11.15625 14.585938 11.054688 14.125 11.054688 C 13.070312 11.054688 12.167969 11.863281 11.992188 12.992188 C 11.902344 13.558594 12.03125 14.097656 12.347656 14.476562 C 12.640625 14.820312 13.054688 14.964844 13.550781 14.964844 C 14.402344 14.964844 14.875 14.414062 14.875 14.414062 L 14.832031 14.683594 C 14.816406 14.785156 14.894531 14.875 14.996094 14.875 L 15.855469 14.875 C 15.992188 14.875 16.109375 14.777344 16.128906 14.640625 L 16.644531 11.339844 C 16.664062 11.238281 16.585938 11.144531 16.480469 11.144531 "/>
<path style=" stroke:none;fill-rule:evenodd;fill:rgb(0%,47.45098%,75.686275%);fill-opacity:1;" d="M 29.378906 13.023438 C 29.285156 13.574219 28.855469 13.941406 28.300781 13.941406 C 28.023438 13.941406 27.800781 13.851562 27.660156 13.683594 C 27.519531 13.515625 27.464844 13.273438 27.511719 13.003906 C 27.597656 12.457031 28.035156 12.078125 28.582031 12.078125 C 28.851562 12.078125 29.070312 12.167969 29.21875 12.339844 C 29.363281 12.511719 29.421875 12.753906 29.378906 13.023438 M 30.710938 11.144531 L 29.753906 11.144531 C 29.671875 11.144531 29.605469 11.203125 29.589844 11.285156 L 29.550781 11.554688 L 29.480469 11.457031 C 29.273438 11.15625 28.8125 11.054688 28.355469 11.054688 C 27.296875 11.054688 26.398438 11.863281 26.222656 12.992188 C 26.128906 13.558594 26.261719 14.097656 26.578125 14.476562 C 26.867188 14.820312 27.285156 14.964844 27.78125 14.964844 C 28.632812 14.964844 29.101562 14.414062 29.101562 14.414062 L 29.058594 14.683594 C 29.042969 14.785156 29.121094 14.875 29.222656 14.875 L 30.085938 14.875 C 30.222656 14.875 30.335938 14.777344 30.359375 14.640625 L 30.875 11.339844 C 30.890625 11.238281 30.8125 11.144531 30.710938 11.144531 "/>
<path style=" stroke:none;fill-rule:evenodd;fill:rgb(0%,27.058824%,48.627451%);fill-opacity:1;" d="M 21.570312 11.144531 L 20.609375 11.144531 C 20.519531 11.144531 20.433594 11.191406 20.378906 11.265625 L 19.054688 13.238281 L 18.496094 11.34375 C 18.460938 11.226562 18.351562 11.144531 18.230469 11.144531 L 17.285156 11.144531 C 17.171875 11.144531 17.089844 11.257812 17.128906 11.367188 L 18.183594 14.5 L 17.191406 15.917969 C 17.113281 16.027344 17.191406 16.179688 17.328125 16.179688 L 18.285156 16.179688 C 18.375 16.179688 18.460938 16.136719 18.511719 16.0625 L 21.707031 11.410156 C 21.78125 11.296875 21.703125 11.144531 21.570312 11.144531 "/>
<path style=" stroke:none;fill-rule:evenodd;fill:rgb(0%,47.45098%,75.686275%);fill-opacity:1;" d="M 31.835938 9.421875 L 31.019531 14.683594 C 31 14.785156 31.078125 14.875 31.183594 14.875 L 32.003906 14.875 C 32.140625 14.875 32.257812 14.777344 32.277344 14.640625 L 33.085938 9.476562 C 33.101562 9.375 33.023438 9.28125 32.921875 9.28125 L 32 9.28125 C 31.917969 9.28125 31.847656 9.339844 31.835938 9.421875 "/>
</g>
</svg>
