<?xml version="1.0" encoding="utf-8"?>
<!-- Generator: Adobe Illustrator 19.2.1, SVG Export Plug-In . SVG Version: 6.00 Build 0)  -->
<svg version="1.1" id="ART" xmlns="http://www.w3.org/2000/svg" xmlns:xlink="http://www.w3.org/1999/xlink" x="0px" y="0px"
	 viewBox="0 0 137.4 137.4" style="enable-background:new 0 0 137.4 137.4;" xml:space="preserve">
<style type="text/css">
	.st0{fill:#FFFFFF;}
</style>
<path class="st0" d="M68.7,0C30.8,0,0,30.8,0,68.7c0,37.9,30.8,68.7,68.7,68.7c37.9,0,68.7-30.8,68.7-68.7
	C137.4,30.8,106.6,0,68.7,0z M74.3,95.4v7.9H63.8v-7.9c-9.1-1.3-13-9.3-13-15.5h13.3c0,3,1.8,5.5,4.6,5.5c2.7,0,4.4-2.3,4.4-4.6
	c0-4.5-5.9-6.7-11-8.6c-4.2-1.4-10.9-4.8-10.9-14.5c0-9.6,6.6-14.1,12.5-15.8v-7.9h10.5V42c6.2,1.5,11,6.6,10.8,14.8H73.1
	c0-2.2-1.2-4.9-4.3-4.9c-2.7,0-4.2,2.1-4.2,4.4c0,4,3.7,5.4,10.5,8c9.7,3.7,11.5,10.9,11.5,15C86.6,85.8,82.7,92.4,74.3,95.4z"/>
</svg>
