<?xml version="1.0" encoding="utf-8"?>
<!-- Generator: Adobe Illustrator 19.2.1, SVG Export Plug-In . SVG Version: 6.00 Build 0)  -->
<svg version="1.1" id="ART" xmlns="http://www.w3.org/2000/svg" xmlns:xlink="http://www.w3.org/1999/xlink" x="0px" y="0px"
	 viewBox="0 0 224 83.6" style="enable-background:new 0 0 224 83.6;" xml:space="preserve">
<style type="text/css">
	.st0{fill:#FFFFFF;}
</style>
<g>
	<path class="st0" d="M14.4,15.2H0V1.5h30.6v80.6H14.4V15.2z"/>
	<path class="st0" d="M44.2,29.6C44.2,6.3,63.2,0,73.2,0c11.3,0,28.8,7.6,28.8,29.4v24.8c0,22-17.4,29.4-28.6,29.4
		c-11.3,0-29.3-7.4-29.3-29.4V29.6z M60.4,54.6c0,7.3,3.9,14.7,12.7,14.7c9,0,12.7-8.5,12.7-14.7V29c0-4.6-1.7-14.7-12.8-14.7
		c-9,0-12.6,7.7-12.6,14.8V54.6z"/>
	<path class="st0" d="M109.7,29.6c0-23.3,19-29.6,29.1-29.6c11.3,0,28.8,7.6,28.8,29.4v24.8c0,22-17.4,29.4-28.6,29.4
		c-11.3,0-29.3-7.4-29.3-29.4V29.6z M125.9,54.6c0,7.3,3.9,14.7,12.7,14.7c9,0,12.7-8.5,12.7-14.7V29c0-4.6-1.7-14.7-12.8-14.7
		c-9,0-12.6,7.7-12.6,14.8V54.6z"/>
	<path class="st0" d="M173.5,13.3c0-6.5,5.2-11.6,11.7-11.6c6.6,0,11.7,5.1,11.7,11.7c0,6.5-5.2,11.7-11.7,11.7
		C178.8,25.1,173.5,19.9,173.5,13.3L173.5,13.3z M179.6,13.5c0,3.1,2.5,5.7,5.7,5.7c3.1,0,5.7-2.5,5.7-5.8c0-3.3-2.5-5.7-5.7-5.7
		C182,7.6,179.6,10.1,179.6,13.5L179.6,13.5z M190.3,51.8H184l22.9-49.2h6.3L190.3,51.8z M200.5,41c0-6.5,5.2-11.6,11.8-11.6
		c6.5,0,11.7,5.2,11.7,11.7c0,6.6-5.3,11.7-11.7,11.7C205.8,52.8,200.5,47.7,200.5,41L200.5,41z M206.6,41.1c0,3.2,2.5,5.7,5.7,5.7
		c3.2,0,5.7-2.5,5.7-5.8c0-3.3-2.5-5.8-5.7-5.8C209,35.3,206.6,37.8,206.6,41.1L206.6,41.1z"/>
</g>
</svg>
