<svg xmlns="http://www.w3.org/2000/svg" width="130" height="26" viewBox="0 0 130 26" fill="#0082c3">
	<polygon points="13,1.1 16.1,9.9 25.5,10.2 18.1,15.9 20.7,24.9 13,19.6 5.3,24.9 7.9,15.9 0.5,10.2 9.9,9.9 "/>
	<polygon points="39,1.1 42.1,9.9 51.5,10.2 44.1,15.9 46.7,24.9 39,19.6 31.3,24.9 33.9,15.9 26.5,10.2 35.9,9.9 "/>
	<polygon points="65,1.1 68.1,9.9 77.5,10.2 70.1,15.9 72.7,24.9 65,19.6 57.3,24.9 59.9,15.9 52.5,10.2 61.9,9.9 "/>
	<polygon points="91,1.1 94.1,9.9 103.5,10.2 96.1,15.9 98.7,24.9 91,19.6 83.3,24.9 85.9,15.9 78.5,10.2 87.9,9.9 "/>
	<polygon points="117,1.1 120.1,9.9 129.5,10.2 122.1,15.9 124.7,24.9 117,19.6 109.3,24.9 111.9,15.9 104.5,10.2 113.9,9.9 "/>
</svg>
