<?xml version="1.0" encoding="UTF-8"?>
<svg xmlns="http://www.w3.org/2000/svg" xmlns:xlink="http://www.w3.org/1999/xlink" width="40px" height="25px" viewBox="0 0 41 25" version="1.1">
<g id="surface1">
<path style=" stroke:none;fill-rule:evenodd;fill:rgb(100%,100%,100%);fill-opacity:1;" d="M 1.640625 0 L 39.359375 0 C 40.265625 0 41 0.746094 41 1.667969 L 41 23.332031 C 41 24.253906 40.265625 25 39.359375 25 L 1.640625 25 C 0.734375 25 0 24.253906 0 23.332031 L 0 1.667969 C 0 0.746094 0.734375 0 1.640625 0 Z M 1.640625 0 "/>
<path style=" stroke:none;fill-rule:evenodd;fill:rgb(14.901961%,20%,47.843137%);fill-opacity:1;" d="M 17.011719 16.476562 L 18.273438 8.53125 L 20.285156 8.53125 L 19.027344 16.476562 Z M 17.011719 16.476562 "/>
<path style=" stroke:none;fill-rule:evenodd;fill:rgb(14.901961%,20%,47.843137%);fill-opacity:1;" d="M 26.335938 8.726562 C 25.9375 8.566406 25.308594 8.390625 24.53125 8.390625 C 22.539062 8.390625 21.136719 9.46875 21.125 11.015625 C 21.109375 12.15625 22.125 12.792969 22.886719 13.175781 C 23.671875 13.5625 23.9375 13.8125 23.933594 14.160156 C 23.929688 14.691406 23.308594 14.9375 22.726562 14.9375 C 21.921875 14.9375 21.492188 14.816406 20.828125 14.519531 L 20.570312 14.394531 L 20.289062 16.171875 C 20.757812 16.394531 21.628906 16.585938 22.535156 16.59375 C 24.652344 16.59375 26.027344 15.53125 26.042969 13.882812 C 26.050781 12.976562 25.511719 12.289062 24.351562 11.722656 C 23.644531 11.351562 23.214844 11.109375 23.21875 10.734375 C 23.21875 10.40625 23.585938 10.050781 24.375 10.050781 C 25.03125 10.042969 25.511719 10.195312 25.882812 10.355469 L 26.0625 10.449219 Z M 26.335938 8.726562 "/>
<path style=" stroke:none;fill-rule:evenodd;fill:rgb(14.901961%,20%,47.843137%);fill-opacity:1;" d="M 29.019531 13.660156 C 29.1875 13.203125 29.820312 11.4375 29.820312 11.4375 C 29.808594 11.460938 29.988281 10.976562 30.089844 10.679688 L 30.226562 11.367188 C 30.226562 11.367188 30.613281 13.261719 30.691406 13.660156 Z M 31.503906 8.539062 L 29.949219 8.539062 C 29.464844 8.539062 29.101562 8.679688 28.890625 9.195312 L 25.898438 16.480469 L 28.015625 16.480469 C 28.015625 16.480469 28.359375 15.5 28.4375 15.285156 C 28.667969 15.285156 30.726562 15.289062 31.019531 15.289062 C 31.082031 15.566406 31.265625 16.480469 31.265625 16.480469 L 33.136719 16.480469 Z M 31.503906 8.539062 "/>
<path style=" stroke:none;fill-rule:evenodd;fill:rgb(14.901961%,20%,47.843137%);fill-opacity:1;" d="M 15.320312 8.535156 L 13.347656 13.957031 L 13.136719 12.855469 C 12.769531 11.585938 11.625 10.210938 10.34375 9.519531 L 12.148438 16.472656 L 14.28125 16.46875 L 17.457031 8.535156 Z M 15.320312 8.535156 "/>
<path style=" stroke:none;fill-rule:evenodd;fill:rgb(92.54902%,59.607843%,17.647059%);fill-opacity:1;" d="M 11.515625 8.53125 L 8.265625 8.53125 L 8.242188 8.695312 C 10.769531 9.355469 12.441406 10.945312 13.136719 12.855469 L 12.429688 9.203125 C 12.308594 8.699219 11.953125 8.550781 11.515625 8.53125 "/>
</g>
</svg>
