<?xml version="1.0" encoding="UTF-8"?>
<svg xmlns="http://www.w3.org/2000/svg" xmlns:xlink="http://www.w3.org/1999/xlink" width="40px" height="25px" viewBox="0 0 40 25" version="1.1">
<g id="surface1">
<path style=" stroke:none;fill-rule:nonzero;fill:rgb(100%,100%,98.039216%);fill-opacity:1;" d="M 0.539062 2.535156 C 0.539062 1.4375 1.429688 0.542969 2.523438 0.542969 L 37.476562 0.542969 C 38.570312 0.542969 39.460938 1.4375 39.460938 2.535156 L 39.460938 22.464844 C 39.460938 23.5625 38.570312 24.457031 37.476562 24.457031 L 2.523438 24.457031 C 1.429688 24.457031 0.539062 23.5625 0.539062 22.464844 Z M 0.539062 2.535156 "/>
<path style=" stroke:none;fill-rule:nonzero;fill:rgb(66.666667%,56.078431%,100%);fill-opacity:1;" d="M 14.847656 9.070312 L 15.859375 17.371094 L 25.78125 17.371094 L 24.765625 9.070312 Z M 14.847656 9.070312 "/>
<path style=" stroke:none;fill-rule:nonzero;fill:rgb(10.196078%,3.137255%,14.901961%);fill-opacity:1;" d="M 17.675781 5.902344 C 18.308594 6.5 18.394531 7.441406 17.871094 8.003906 C 17.34375 8.566406 16.40625 8.539062 15.773438 7.9375 C 15.140625 7.339844 15.054688 6.402344 15.578125 5.839844 C 16.105469 5.277344 17.042969 5.304688 17.675781 5.902344 Z M 17.675781 5.902344 "/>
<path style=" stroke:none;fill-rule:evenodd;fill:rgb(10.196078%,3.137255%,14.901961%);fill-opacity:1;" d="M 36.179688 12.058594 C 35.949219 10.191406 34.492188 9.0625 32.511719 9.070312 L 25.914062 9.070312 L 26.929688 17.371094 L 29.898438 17.371094 L 29.695312 15.710938 L 32.839844 15.710938 C 35.308594 15.710938 36.441406 14.160156 36.179688 12.058594 Z M 32.515625 13.382812 L 29.410156 13.386719 L 29.164062 11.394531 L 32.289062 11.398438 C 33.023438 11.410156 33.398438 11.824219 33.457031 12.394531 C 33.496094 12.757812 33.332031 13.382812 32.515625 13.382812 Z M 32.515625 13.382812 "/>
<path style=" stroke:none;fill-rule:nonzero;fill:rgb(10.196078%,3.137255%,14.901961%);fill-opacity:1;" d="M 4.515625 15.050781 L 4.796875 17.371094 L 14.710938 17.371094 L 14.382812 14.714844 L 9.765625 14.714844 L 9.722656 14.382812 L 13.980469 11.394531 L 13.695312 9.070312 L 3.785156 9.070312 L 4.105469 11.726562 L 8.734375 11.726562 L 8.777344 12.058594 Z M 4.515625 15.050781 "/>
<path style=" stroke:none;fill-rule:nonzero;fill:rgb(10.196078%,3.137255%,14.901961%);fill-opacity:1;" d="M 2.523438 1.085938 L 37.476562 1.085938 L 37.476562 0 L 2.523438 0 Z M 38.917969 2.535156 L 38.917969 22.464844 L 40 22.464844 L 40 2.535156 Z M 37.476562 23.914062 L 2.523438 23.914062 L 2.523438 25 L 37.476562 25 Z M 1.082031 22.464844 L 1.082031 2.535156 L 0 2.535156 L 0 22.464844 Z M 2.523438 23.914062 C 1.726562 23.914062 1.082031 23.265625 1.082031 22.464844 L 0 22.464844 C 0 23.863281 1.128906 25 2.523438 25 Z M 38.917969 22.464844 C 38.917969 23.265625 38.273438 23.914062 37.476562 23.914062 L 37.476562 25 C 38.871094 25 40 23.863281 40 22.464844 Z M 37.476562 1.085938 C 38.273438 1.085938 38.917969 1.734375 38.917969 2.535156 L 40 2.535156 C 40 1.136719 38.871094 0 37.476562 0 Z M 2.523438 0 C 1.128906 0 0 1.136719 0 2.535156 L 1.082031 2.535156 C 1.082031 1.734375 1.726562 1.085938 2.523438 1.085938 Z M 2.523438 0 "/>
</g>
</svg>
